<?xml version="1.0" encoding="iso-8859-1"?>
<!-- Generator: Adobe Illustrator 16.0.0, SVG Export Plug-In . SVG Version: 6.00 Build 0)  -->
<!DOCTYPE svg PUBLIC "-//W3C//DTD SVG 1.1//EN" "http://www.w3.org/Graphics/SVG/1.1/DTD/svg11.dtd">
<svg version="1.1" id="Capa_1" xmlns="http://www.w3.org/2000/svg" xmlns:xlink="http://www.w3.org/1999/xlink" x="0px" y="0px"
	 width="503.824px" height="503.825px" viewBox="0 0 503.824 503.825" style="enable-background:new 0 0 503.824 503.825;"
	 xml:space="preserve">
<g>
	<g>
		<path d="M409.596,108.461c27.59,0,49.96-22.371,49.96-49.964c0-27.596-22.37-49.964-49.96-49.964
			c-27.595,0-49.964,22.368-49.964,49.964C359.632,86.09,382.001,108.461,409.596,108.461z"/>
		<path d="M503.038,224.811c-0.916-11.036-2.731-22.956-6.09-34.849c-3.326-11.879-8.264-23.729-14.78-34.195
			c-3.249-5.23-6.864-10.107-10.701-14.479c-3.834-4.375-7.883-8.24-11.917-11.536c-8.081-6.617-16.021-10.878-22.103-13.4
			c-3.055-1.27-5.646-2.122-7.72-2.693c-12.26-3.351-26.196-2.87-37.874-0.681c-0.927,0.18-1.818,0.394-2.869,0.681
			c-2.075,0.571-4.665,1.423-7.72,2.693c-6.082,2.522-14.022,6.784-22.104,13.401c-4.034,3.296-8.083,7.162-11.916,11.537
			c-3.837,4.371-7.452,9.248-10.7,14.478c-6.517,10.467-11.455,22.316-14.78,34.195c-3.357,11.893-5.174,23.813-6.089,34.848
			c-0.911,11.045-0.909,21.224-0.602,29.865c0.312,8.645,0.95,15.755,1.45,20.714c0.509,4.959,0.873,7.771,0.873,7.771l0.021,0.172
			c0.164,1.24,0.494,2.422,0.941,3.542c-0.225,0.119-0.445,0.243-0.661,0.382c0,0-4.104,2.718-4.279,2.779
			c-1.534,0.254-3.372-0.117-4.859-0.466c-1.824-0.428-3.605-1.051-5.339-1.756c-3.727-1.519-7.289-3.434-10.74-5.496
			c-6.428-3.838-12.617-8.131-18.379-12.905c-6.939-5.752-14.531-8.505-22.117-8.573v-0.004c-0.024,0-0.049,0.002-0.073,0.002
			s-0.049-0.002-0.073-0.002v0.004c-7.586,0.068-15.177,2.821-22.117,8.573c-5.762,4.774-11.951,9.067-18.379,12.905
			c-3.451,2.062-7.014,3.978-10.741,5.496c-1.733,0.705-3.514,1.33-5.338,1.756c-1.488,0.349-3.326,0.72-4.86,0.466
			c-0.136-0.048-2.658-1.708-3.763-2.438c0.257-1.049,0.413-2.133,0.425-3.248c0.052-4.93,0.115-9.854,0.022-14.781
			c0.003,0.09,0.003,0.045-0.004-0.28c-0.039-1.479-0.034-1.202-0.021-0.671c-0.328-11.566-1.134-23.091-2.899-34.538
			c-1.902-12.336-4.971-24.469-9.209-36.205c-8.019-22.206-21.802-43.515-41.339-57.229c-4.051-2.872-8.444-5.167-12.796-7.564
			c-16.663-9.178-35.649-9.178-52.477-0.222c-20.684,11.009-37.412,28.574-48.192,49.044c-5.764,10.945-9.875,22.603-13.082,34.523
			c-3.201,11.894-4.861,24.103-6.083,36.334c-1.098,10.994-1.037,22.076-0.932,33.108c0.097,7.655,6.33,14.144,13.984,14.495
			c7.769,0.357,14.624-5.682,15.263-13.428c0.302-3.664,0.502-7.349,0.926-10.998c0.662-5.694,1.415-11.354,2.299-17.02
			c1.855-11.878,5.057-23.609,9.256-34.863c1.049-2.814,2.202-5.615,3.477-8.336l0.515,34.833L17.696,376.856
			c-0.568,2.904,0.182,5.882,2.061,8.164c1.882,2.285,4.657,3.596,7.616,3.596h21.545l4.308,89.036
			c0.464,8.932,8.045,16.218,16.997,16.263c8.899,0.045,16.523-7.057,17.122-15.934c0.005-0.09,0.011-0.182,0.016-0.271
			l4.614-89.094h4.007l4.308,89.036c0.464,8.932,8.044,16.218,16.997,16.263c8.9,0.045,16.524-7.057,17.122-15.934
			c0.006-0.09,0.011-0.182,0.016-0.271l4.614-89.094h22.197c2.952,0,5.724-1.307,7.604-3.583c1.88-2.278,2.637-5.247,2.064-8.203
			l-27.74-126.874l0.396-34.284c4.781,11.356,7.963,25.423,10.278,37.507c1.997,10.426,3.048,20.95,3.923,31.521
			c0.021,0.257,0.042,0.515,0.063,0.771c0.665,7.723,7.514,13.699,15.246,13.362c0.17-0.007,0.335-0.034,0.504-0.047
			c0.035,0.065,0.058,0.134,0.095,0.198c1.744,3.086,3.932,5.736,6.918,7.707c3.741,2.467,8.184,3.609,12.626,3.82
			c9.031,0.428,18.033-2.414,26.321-5.728l-3.046,55.793c-0.372,6.867,1.252,12.897,4.355,18.5l5.021,104.698
			c0.278,5.735,5.15,10.391,10.896,10.391c5.727,0,10.598-4.642,10.913-10.354l4.241-81.868l4.239,81.868
			c0.315,5.712,5.187,10.354,10.913,10.354c5.747,0,10.619-4.654,10.896-10.391l5.021-104.698c3.104-5.603,4.728-11.632,4.355-18.5
			l-3.046-55.793c8.289,3.313,17.291,6.155,26.321,5.728c4.441-0.209,8.885-1.354,12.626-3.82c2.986-1.971,5.174-4.62,6.918-7.707
			c0.492-0.875,0.81-1.829,0.984-2.811c0.547,0.036,1.099,0.051,1.66,0.026c8.192-0.368,14.535-7.308,14.168-15.498
			c0,0-0.116-2.615-0.202-7.172c-0.078-4.554-0.111-11.052,0.255-18.752c0.369-7.694,1.13-16.6,2.684-25.839
			c1.55-9.232,3.891-18.802,7.234-27.655c1.876-5.024,4.089-9.787,6.535-14.167l-10.938,90.29c-0.506,4.401-0.556,9.229,0,13.821
			c1.142,9.424,4.516,18.026,9.512,25.371l7.691,162.206c0.446,8.804,7.525,16.065,16.51,16.469
			c9.548,0.428,17.635-6.964,18.063-16.514l5.493-122.526l5.711,122.558c0.438,8.803,7.512,16.072,16.497,16.481
			c9.547,0.437,17.641-6.95,18.076-16.497l7.434-162.777c7.266-10.981,10.827-24.495,9.12-38.592L455.84,188.2
			c2.206,4.079,4.208,8.473,5.932,13.083c3.342,8.853,5.684,18.423,7.233,27.654c1.553,9.24,2.315,18.145,2.685,25.84
			c0.365,7.698,0.333,14.198,0.256,18.752c-0.085,4.557-0.204,7.172-0.204,7.172c-0.318,7.61,5.23,14.394,12.929,15.39
			c8.132,1.053,15.577-4.688,16.629-12.82l0.016-0.111c0,0,0.362-2.812,0.873-7.77c0.501-4.959,1.136-12.071,1.45-20.715
			C503.947,246.035,503.947,235.854,503.038,224.811z"/>
		<path d="M93.33,123.042c0.361,0.008,0.723,0.012,1.083,0.012c17.322,0,33.702-9.372,42.508-24.286
			c8.931-15.125,9.03-34.434,0.255-49.65c-8.645-14.99-24.915-24.535-42.221-24.721C77.619,24.21,61.13,33.409,52.163,48.247
			c-9.084,15.032-9.383,34.338-0.766,49.644C59.88,112.956,76.04,122.669,93.33,123.042z"/>
		<path d="M251.737,258.487c0.059,0,0.118-0.002,0.177-0.004c0.059,0.002,0.117,0.004,0.178,0.004c8.614,0,16.979-3.604,22.898-9.86
			c5.952-6.292,9.073-14.895,8.563-23.539c-0.503-8.553-4.575-16.657-11.112-22.19c-5.708-4.829-13.027-7.443-20.455-7.436v-0.003
			c-0.024,0-0.049,0.002-0.073,0.002s-0.049-0.002-0.073-0.002v0.003c-7.429-0.007-14.747,2.607-20.455,7.436
			c-6.537,5.533-10.609,13.637-11.112,22.19c-0.509,8.644,2.611,17.247,8.563,23.539
			C234.756,254.883,243.122,258.487,251.737,258.487z"/>
	</g>
</g>
<g>
</g>
<g>
</g>
<g>
</g>
<g>
</g>
<g>
</g>
<g>
</g>
<g>
</g>
<g>
</g>
<g>
</g>
<g>
</g>
<g>
</g>
<g>
</g>
<g>
</g>
<g>
</g>
<g>
</g>
</svg>
