<?xml version="1.0" encoding="iso-8859-1"?>
<!-- Generator: Adobe Illustrator 19.0.0, SVG Export Plug-In . SVG Version: 6.00 Build 0)  -->
<svg xmlns="http://www.w3.org/2000/svg" xmlns:xlink="http://www.w3.org/1999/xlink" version="1.1" id="Capa_1" x="0px" y="0px" viewBox="0 0 490 490" style="enable-background:new 0 0 490 490;" xml:space="preserve" width="512px" height="512px">
<g>
	<g>
		<g>
			<g>
				<path d="M234.9,391.02V56.52c-63-13.6-126-20.2-189,9.7v334.4C108.9,370.72,171.9,377.42,234.9,391.02z" fill="#006DF0"/>
				<g>
					<path d="M444.1,400.72V66.22c-63-29.9-126-23.3-189-10.1v334.4C318.1,377.42,381.1,370.72,444.1,400.72z" fill="#006DF0"/>
				</g>
			</g>
		</g>
		<path d="M463.9,105.92v326.3c-47.1-26.5-86.5-32.8-118.2-33.1c-29.8-0.2-81.2,8.7-100.7,14c-22.5-5.6-73.7-14.6-100.7-14    c-33,0.7-62.6,3.9-118.2,33.1v-326.3H0v339.1h490v-339.1H463.9z" fill="#006DF0"/>
	</g>
</g>
<g>
</g>
<g>
</g>
<g>
</g>
<g>
</g>
<g>
</g>
<g>
</g>
<g>
</g>
<g>
</g>
<g>
</g>
<g>
</g>
<g>
</g>
<g>
</g>
<g>
</g>
<g>
</g>
<g>
</g>
</svg>
