<?xml version="1.0" encoding="utf-8"?>
<!-- Generator: Adobe Illustrator 19.0.0, SVG Export Plug-In . SVG Version: 6.00 Build 0)  -->
<svg version="1.1" id="Layer_1" xmlns="http://www.w3.org/2000/svg" xmlns:xlink="http://www.w3.org/1999/xlink" x="0px" y="0px"
	 viewBox="277 359 56.3 74.9" style="enable-background:new 277 359 56.3 74.9;" xml:space="preserve">
<style type="text/css">
	.st0{clip-path:url(#SVGID_2_);}
</style>
<g>
	<g>
		<g>
			<defs>
				<rect id="SVGID_1_" x="277" y="359" width="56.9" height="74.9"/>
			</defs>
			<clipPath id="SVGID_2_">
				<use xlink:href="#SVGID_1_"  style="overflow:visible;"/>
			</clipPath>
			<path class="st0" d="M329.9,367.6l3-5.7c0.3-0.6,0.3-1.3-0.1-1.9s-1-0.9-1.7-0.9H279c-1.1,0-2,0.9-2,2v73h56.3v-59.6L329.9,367.6
				z M319.6,417.3c-1.4,0.9-3.7,1.8-7,0.4l0,0c-5.1-2.4-9.5-5.4-13.4-9.3l0,0c-3.9-4-6.9-8.4-9.3-13.4l0,0c-1.4-3.3-0.6-5.6,0.4-7
				c1.5-2.2,4.3-3.3,5.7-3.3c0.3,0,0.6,0.1,0.8,0.3l0.1,0.1l6.5,7.8c0.2,0.3,0.3,0.6,0.3,1c-0.2,1.2-0.8,2.3-1.7,3.2l-0.4,0.4
				c-0.4,0.4-0.9,0.8-1.4,1.1l-0.5,0.3l0.3,0.5c2.3,3.2,5.1,6,8.3,8.3l0.5,0.3l0.3-0.5c0.3-0.5,0.7-1,1.1-1.4l0.4-0.4
				c0.9-0.9,2-1.4,3.2-1.7c0.3-0.1,0.7,0,1,0.3l7.8,6.5c0.3,0.2,0.4,0.5,0.4,0.9C322.9,413,321.8,415.8,319.6,417.3L319.6,417.3z
				 M280.9,374.2v-11.4h47l-2,3.8c-0.3,0.6-0.3,1.2,0,1.8l3,5.8L280.9,374.2L280.9,374.2z"/>
		</g>
	</g>
</g>
</svg>
