<?xml version="1.0" encoding="utf-8"?>
<!-- Generator: Adobe Illustrator 19.0.0, SVG Export Plug-In . SVG Version: 6.00 Build 0)  -->
<svg version="1.1" id="Layer_1" xmlns="http://www.w3.org/2000/svg" xmlns:xlink="http://www.w3.org/1999/xlink" x="0px" y="0px"
	 viewBox="9.9 203.3 394.2 384" style="enable-background:new 9.9 203.3 394.2 384;" xml:space="preserve">
<style type="text/css">
	.st0{fill:#006DF0;}
</style>
<path class="st0" d="M105.7,203.3c43.6,0,79,35.5,79,79s-35.5,79-79,79s-79-35.5-79-79C26.7,238.8,62.1,203.3,105.7,203.3z"/>
<path class="st0" d="M402,578.7c-2.9,5.3-8.5,8.7-14.6,8.7H26.6c-6.1,0-11.7-3.3-14.6-8.7c-2.9-5.3-2.7-11.9,0.6-17L98.3,427
	c3.1-4.8,8.4-7.7,14.1-7.7c5.7,0,11,2.9,14.1,7.7l41.2,64.7l80.5-126.4c3.1-4.8,8.4-7.7,14.1-7.7c5.7,0,11,2.9,14.1,7.7l125.1,196.4
	C404.8,566.8,405,573.3,402,578.7z"/>
</svg>
