<?xml version="1.0" encoding="iso-8859-1"?>
<!-- Generator: Adobe Illustrator 16.0.0, SVG Export Plug-In . SVG Version: 6.00 Build 0)  -->
<!DOCTYPE svg PUBLIC "-//W3C//DTD SVG 1.1//EN" "http://www.w3.org/Graphics/SVG/1.1/DTD/svg11.dtd">
<svg xmlns="http://www.w3.org/2000/svg" xmlns:xlink="http://www.w3.org/1999/xlink" version="1.1" id="Capa_1" x="0px" y="0px" width="512px" height="512px" viewBox="0 0 194.646 194.646" style="enable-background:new 0 0 194.646 194.646;" xml:space="preserve">
<g>
	<g>
		<path d="M89.766,0.699C67.374,4.127,51.459,16.812,41.091,36.691c-9.387,17.998-13.503,41.621-5.675,60.86    c0.076,0.188,0.168,0.355,0.271,0.51c0.11,0.737,0.59,1.379,1.529,1.535c4.67,0.786,9.493,0.816,14.207,0.469    c2.531-0.186,5.734,0.03,8.155-1.012c7.629,7.893,17.976,13.456,27.914,14.463c14.138,1.432,27.918-3.195,38.818-12.136    c0.921-0.756,1.754-1.552,2.547-2.367c0.204,0.179,0.438,0.333,0.732,0.433c3.889,1.309,8.656,1.002,12.704,1.024    c4.115,0.022,8.481,0.47,12.558-0.147c1.088-0.164,1.747-0.991,1.988-1.963c0.29-0.326,0.515-0.752,0.617-1.312    C165.14,54.79,141.87-7.277,89.766,0.699z M127.593,91.8c-7.307,11.502-22.876,16.149-35.667,16.472    c-11.043,0.279-21.462-6.07-28.925-13.678c-8.738-8.907-10.608-19.93-8.551-31.717c12.431,3.283,24.785,0.347,36.277-5.149    c6.67-3.19,12.459-7.801,18.9-11.364c8.598-4.756,20.293,10.476,23.505,16.911c0.245,0.491,0.558,0.834,0.903,1.074    C133.562,74.002,132.97,83.335,127.593,91.8z" fill="#006DF0"/>
		<path d="M104.316,85.209c-0.246,4.848-4.043,6.99-8.555,6.942c-4.681-0.05-7.8-3.277-9.002-7.553    c-0.741-2.636-4.272-1.875-4.517,0.611c-1.633,16.584,27.599,17.199,28.047,0C110.392,81.341,104.512,81.384,104.316,85.209z" fill="#006DF0"/>
		<path d="M79.378,68.841c-1.188-1.187-3.1-1.183-4.33-0.084c-1.275,0.421-2.242,1.393-2.242,2.917c0,1.567,1.428,3.305,3.124,3.124    c1.364-0.144,2.445-0.578,3.448-1.521C80.625,72.107,80.559,70.022,79.378,68.841z" fill="#006DF0"/>
		<path d="M112.853,68.533c-0.015,0.008-0.034,0.011-0.048,0.02c-0.051,0.03-0.08,0.075-0.128,0.107    c-0.057,0.045-0.113,0.091-0.168,0.141c-0.898,0.708-1.199,1.799-0.997,2.93c0.074,0.415,0.265,0.746,0.516,1.033    c1.606,2.554,5.833,1.439,5.833-1.704C117.86,68.278,114.79,67.21,112.853,68.533z" fill="#006DF0"/>
		<path d="M169.333,163.357c-5.905-12.139-14.972-23.31-24.383-32.906c-5.437-5.545-15.998-18.91-24.512-15.25    c-4.992,2.146-7.215,11.859-8.956,16.287c-3.673,9.342-5.576,19.971-10.941,28.58c-7.882-11.617-13.389-24.69-21.273-36.344    c-5.667-8.377-12.83-9.34-21.425-4.591c-11.663,6.445-21.282,18.793-28.264,29.842c-6.68,10.572-10.966,23.474-8.412,35.933    c-1.257,0.893-1.093,3.31,0.67,3.875c11.125,3.57,23.076,3.255,34.636,3.078c13.559-0.207,27.031-0.705,40.583,0.066    c12.213,0.696,24.413,1.584,36.635,2.104c10.984,0.466,23.205,1.529,33.99-1.063c0.889-0.214,1.442-0.769,1.71-1.437    c0.107-0.076,0.215-0.145,0.319-0.239C177.889,183.783,173.449,171.816,169.333,163.357z" fill="#006DF0"/>
	</g>
</g>
<g>
</g>
<g>
</g>
<g>
</g>
<g>
</g>
<g>
</g>
<g>
</g>
<g>
</g>
<g>
</g>
<g>
</g>
<g>
</g>
<g>
</g>
<g>
</g>
<g>
</g>
<g>
</g>
<g>
</g>
</svg>
